0
SECTION
2
HEADER
9
$INSUNITS
70
4
9
$ACADVER
1
AC1014
9
$HANDSEED
5
FFFF
0
ENDSEC
0
SECTION
2
TABLES
0
TABLE
2
VPORT
5
8
100
AcDbSymbolTable
0
ENDTAB
0
TABLE
2
LTYPE
5
5
100
AcDbSymbolTable
0
LTYPE
5
14
100
AcDbSymbolTableRecord
100
AcDbLinetypeTableRecord
2
BYBLOCK
70
0
0
LTYPE
5
15
100
AcDbSymbolTableRecord
100
AcDbLinetypeTableRecord
2
BYLAYER
70
0
0
LTYPE
5
16
100
AcDbSymbolTableRecord
100
AcDbLinetypeTableRecord
2
DASHED
70
0
3
Dashed __ __ __ __ __ __ __ __ __ __ __ __ __ _
72
65
73
2
40
0.75
49
0.5
74
0
49
-0.25
74
0
0
ENDTAB
0
TABLE
2
LAYER
5
2
100
AcDbSymbolTable
70
3
0
LAYER
5
50
100
AcDbSymbolTableRecord
100
AcDbLayerTableRecord
2
1
70
0
62
7
6
DASHED
0
LAYER
5
51
100
AcDbSymbolTableRecord
100
AcDbLayerTableRecord
2
0
70
0
62
7
6
CONTINUOUS
0
ENDTAB
0
TABLE
2
STYLE
5
3
100
AcDbSymbolTable
70
1
0
STYLE
5
11
100
AcDbSymbolTableRecord
100
AcDbTextStyleTableRecord
2
STANDARD
70
0
0
ENDTAB
0
TABLE
2
VIEW
5
6
100
AcDbSymbolTable
70
0
0
ENDTAB
0
TABLE
2
UCS
5
7
100
AcDbSymbolTable
70
0
0
ENDTAB
0
TABLE
2
APPID
5
9
100
AcDbSymbolTable
70
2
0
APPID
5
12
100
AcDbSymbolTableRecord
100
AcDbRegAppTableRecord
2
ACAD
70
0
0
ENDTAB
0
TABLE
2
DIMSTYLE
5
A
100
AcDbSymbolTable
70
1
0
ENDTAB
0
TABLE
2
BLOCK_RECORD
5
1
100
AcDbSymbolTable
70
1
0
BLOCK_RECORD
5
1F
100
AcDbSymbolTableRecord
100
AcDbBlockTableRecord
2
*MODEL_SPACE
0
BLOCK_RECORD
5
1B
100
AcDbSymbolTableRecord
100
AcDbBlockTableRecord
2
*PAPER_SPACE
0
ENDTAB
0
ENDSEC
0
SECTION
2
BLOCKS
0
BLOCK
5
20
100
AcDbEntity
100
AcDbBlockBegin
2
*MODEL_SPACE
0
ENDBLK
5
21
100
AcDbEntity
100
AcDbBlockEnd
0
BLOCK
5
1C
100
AcDbEntity
100
AcDbBlockBegin
2
*PAPER_SPACE
0
ENDBLK
5
1D
100
AcDbEntity
100
AcDbBlockEnd
0
ENDSEC
0
SECTION
2
ENTITIES
0
LWPOLYLINE
5
100
100
AcDbEntity
8
0
100
AcDbPolyline
90
63
70
1
43
0.0
10
6.0000000894069672
20
21.000000312924385
10
11.363662812511681
20
30.009667113498473
10
12.500000186264515
20
31.000000461935997
10
12.898208492053273
20
31.668894897994257
10
12.500000186264515
20
31.668894897994257
10
13.773751646148325
20
33.808491817625914
10
15.783834275894746
20
34.684541304859138
10
16.755060707590207
20
34.836295434811561
10
17.239782665119979
20
35.650512053886622
10
17.817339617257119
20
36.293135082354752
10
18.500000275671482
20
36.293135082354752
10
19.039726547043205
20
35.971823568120691
10
19.242396044178513
20
35.460490889229689
10
19.54793067875881
20
35.581591208657947
10
19.54793067875881
20
35.137155138707556
10
20.500000305473804
20
35.000000521540642
10
20.79100411246872
20
34.694695690624641
10
21.505746297833433
20
34.847348106082642
10
21.427233030972378
20
34.302342052209788
10
21.541933386749406
20
33.765297271724549
10
22.157745638460817
20
33.676583703661677
42
0.49956543951501142
10
21.216445889471526
20
29.674482721991545
10
20.903858241784633
20
29.674482721991545
10
21.060152065628081
20
29.28423413672645
10
20.982005153706353
20
28.943880715124205
10
20.733663419902339
20
29.000901266017184
10
20.982005153706353
20
28.380819116281231
10
20.451679267328828
20
28.168424597006279
10
20.076647162172833
20
26.535046424259157
10
19.40630318673476
20
26.050876631505133
10
19.31501496178301
20
25.217751559960902
42
0.69288953165772271
10
19.19363344702349
20
24.109985654537503
10
18.706278084775647
20
23.568933561062309
10
17.05621046015921
20
16.832775140569314
10
16.906548674546823
20
15.655245831421176
10
16.407295067511171
20
15.10098454656368
10
16.139559790213674
20
14.00799464983155
10
15.198243369061569
20
13.422801398116581
10
15.088766977187058
20
12.975880127758286
10
15.143505173124314
20
12.428419784273464
10
13.629368905946823
20
10.95306520226347
10
13.008567123029245
20
9.273849815306713
10
12.484427995209906
20
8.3808720419848743
10
12.212652151155432
20
6.691979296789226
10
12.484427995209906
20
5.3719251970960737
42
0.42242859646793252
10
12.193239590865828
20
3.8577454945068701
10
11.496154263012397
20
4.3606689162548768
10
10.855539773455426
20
4.1092072053808737
10
10.739064411717795
20
4.6763385002788747
10
10.432633907033509
20
5.12796278281008
10
10.797302092586612
20
5.8166109379752653
10
10.049653304222744
20
8.0331567000923076
10
9.4005522963399777
20
8.4505163342171628
42
-0.3508262276012114
10
6.7410315366640683
20
11.304162696789122
10
6.2206545344623452
20
12.667434326312733
10
6.2206545344623452
20
13.81277538339944
10
5.6965154066430053
20
14.492214993535622
10
4.8423627539003791
20
15.01635412135496
10
5.0416486576329076
20
15.341116334845006
10
5.4074472604288459
20
15.623303828430444
10
5.2694390802716917
20
16.724659426840212
10
6.0000000894069672
20
18.118313183819847
10
5.7848353259549175
20
19.835406449875379
0
ENDSEC
0
SECTION
2
OBJECTS
0
DICTIONARY
5
C
100
AcDbDictionary
3
ACAD_GROUP
350
D
3
ACAD_MLINESTYLE
350
17
0
DICTIONARY
5
D
100
AcDbDictionary
0
DICTIONARY
5
1A
330
C
100
AcDbDictionary
0
DICTIONARY
5
17
100
AcDbDictionary
0
ENDSEC
0
EOF
