0
SECTION
2
HEADER
9
$INSUNITS
70
4
9
$ACADVER
1
AC1014
9
$HANDSEED
5
FFFF
0
ENDSEC
0
SECTION
2
TABLES
0
TABLE
2
VPORT
5
8
100
AcDbSymbolTable
0
ENDTAB
0
TABLE
2
LTYPE
5
5
100
AcDbSymbolTable
0
LTYPE
5
14
100
AcDbSymbolTableRecord
100
AcDbLinetypeTableRecord
2
BYBLOCK
70
0
0
LTYPE
5
15
100
AcDbSymbolTableRecord
100
AcDbLinetypeTableRecord
2
BYLAYER
70
0
0
LTYPE
5
16
100
AcDbSymbolTableRecord
100
AcDbLinetypeTableRecord
2
DASHED
70
0
3
Dashed __ __ __ __ __ __ __ __ __ __ __ __ __ _
72
65
73
2
40
0.75
49
0.5
74
0
49
-0.25
74
0
0
ENDTAB
0
TABLE
2
LAYER
5
2
100
AcDbSymbolTable
70
3
0
LAYER
5
50
100
AcDbSymbolTableRecord
100
AcDbLayerTableRecord
2
1
70
0
62
7
6
DASHED
0
LAYER
5
51
100
AcDbSymbolTableRecord
100
AcDbLayerTableRecord
2
0
70
0
62
7
6
CONTINUOUS
0
ENDTAB
0
TABLE
2
STYLE
5
3
100
AcDbSymbolTable
70
1
0
STYLE
5
11
100
AcDbSymbolTableRecord
100
AcDbTextStyleTableRecord
2
STANDARD
70
0
0
ENDTAB
0
TABLE
2
VIEW
5
6
100
AcDbSymbolTable
70
0
0
ENDTAB
0
TABLE
2
UCS
5
7
100
AcDbSymbolTable
70
0
0
ENDTAB
0
TABLE
2
APPID
5
9
100
AcDbSymbolTable
70
2
0
APPID
5
12
100
AcDbSymbolTableRecord
100
AcDbRegAppTableRecord
2
ACAD
70
0
0
ENDTAB
0
TABLE
2
DIMSTYLE
5
A
100
AcDbSymbolTable
70
1
0
ENDTAB
0
TABLE
2
BLOCK_RECORD
5
1
100
AcDbSymbolTable
70
1
0
BLOCK_RECORD
5
1F
100
AcDbSymbolTableRecord
100
AcDbBlockTableRecord
2
*MODEL_SPACE
0
BLOCK_RECORD
5
1B
100
AcDbSymbolTableRecord
100
AcDbBlockTableRecord
2
*PAPER_SPACE
0
ENDTAB
0
ENDSEC
0
SECTION
2
BLOCKS
0
BLOCK
5
20
100
AcDbEntity
100
AcDbBlockBegin
2
*MODEL_SPACE
0
ENDBLK
5
21
100
AcDbEntity
100
AcDbBlockEnd
0
BLOCK
5
1C
100
AcDbEntity
100
AcDbBlockBegin
2
*PAPER_SPACE
0
ENDBLK
5
1D
100
AcDbEntity
100
AcDbBlockEnd
0
ENDSEC
0
SECTION
2
ENTITIES
0
POINT
5
100
100
AcDbEntity
8
0
100
AcDbPoint
10
0
20
0
30
0
0
LWPOLYLINE
5
101
100
AcDbEntity
8
0
100
AcDbPolyline
90
4
70
1
43
0.0
10
0
20
0
10
129.99999999999997
20
0
10
129.99999999999997
20
130
10
0
20
130
0
LINE
5
102
100
AcDbEntity
8
1
100
AcDbLine
10
0
20
0
30
0
11
0
21
10
31
0
0
LINE
5
103
100
AcDbEntity
8
1
100
AcDbLine
10
0
20
10
30
0
11
10
21
10
31
0
0
LWPOLYLINE
5
104
100
AcDbEntity
8
0
100
AcDbPolyline
90
4
70
1
43
0.0
10
10
20
10
10
60
20
10
10
60
20
60
10
10
20
60
0
LINE
5
105
100
AcDbEntity
8
1
100
AcDbLine
10
10
20
60
30
0
11
10
21
70
31
0
0
LWPOLYLINE
5
106
100
AcDbEntity
8
0
100
AcDbPolyline
90
4
70
1
43
0.0
10
10
20
70
10
59.999999999999993
20
70
10
59.999999999999993
20
120
10
10
20
120
0
LINE
5
107
100
AcDbEntity
8
1
100
AcDbLine
10
59.999999999999993
20
120
30
0
11
70
21
120
31
0
0
LWPOLYLINE
5
108
100
AcDbEntity
8
0
100
AcDbPolyline
90
4
70
1
43
0.0
10
70
20
120
10
120
20
120
10
120
20
70.000000000000014
10
70
20
70.000000000000014
0
LINE
5
109
100
AcDbEntity
8
1
100
AcDbLine
10
120
20
70.000000000000014
30
0
11
120
21
60.000000000000007
31
0
0
LWPOLYLINE
5
110
100
AcDbEntity
8
0
100
AcDbPolyline
90
4
70
1
43
0.0
10
120
20
60.000000000000007
10
70
20
60.000000000000007
10
70
20
10
10
120
20
10
0
LWPOLYLINE
5
111
100
AcDbEntity
8
0
100
AcDbPolyline
90
6
70
1
43
0.0
10
-5.0000000000000018
20
210
10
25
20
210
10
34.999999999999979
20
210
10
34.999999999999993
20
240
10
25
20
240
10
-5.000000000000008
20
240
0
LINE
5
112
100
AcDbEntity
8
0
100
AcDbLine
10
25
20
210
30
0
11
25
21
240
31
0
0
LINE
5
113
100
AcDbEntity
8
0
100
AcDbLine
10
-5.000000000000008
20
240
30
0
11
-5.0000000000000071
21
250
31
0
0
LINE
5
114
100
AcDbEntity
8
0
100
AcDbLine
10
-5.0000000000000071
20
250
30
0
11
25.000000000000004
21
250
31
0
0
LINE
5
115
100
AcDbEntity
8
0
100
AcDbLine
10
25.000000000000004
20
250
30
0
11
25
21
240
31
0
0
LINE
5
116
100
AcDbEntity
8
1
100
AcDbLine
10
-5.0000000000000044
20
225
30
0
11
25
21
225
31
0
0
LINE
5
117
100
AcDbEntity
8
1
100
AcDbLine
10
9.9999999999999964
20
240
30
0
11
9.9999999999999982
21
210
31
0
0
LINE
5
118
100
AcDbEntity
8
0
100
AcDbLine
10
-5.0000000000000071
20
210
30
0
11
-5.0000000000000044
21
200
31
0
0
LINE
5
119
100
AcDbEntity
8
0
100
AcDbLine
10
-5.0000000000000044
20
200
30
0
11
25.000000000000007
21
200
31
0
0
LINE
5
120
100
AcDbEntity
8
0
100
AcDbLine
10
25.000000000000007
20
200
30
0
11
25
21
210
31
0
0
LINE
5
121
100
AcDbEntity
8
0
100
AcDbLine
10
-5.0000000000000071
20
240
30
0
11
-15.000000000000007
21
240
31
0
0
LINE
5
122
100
AcDbEntity
8
0
100
AcDbLine
10
-15.000000000000007
20
240
30
0
11
-14.999999999999996
21
210
31
0
0
LINE
5
123
100
AcDbEntity
8
0
100
AcDbLine
10
-14.999999999999996
20
210
30
0
11
-4.9999999999999991
21
210
31
0
0
ENDSEC
0
SECTION
2
OBJECTS
0
DICTIONARY
5
C
100
AcDbDictionary
3
ACAD_GROUP
350
D
3
ACAD_MLINESTYLE
350
17
0
DICTIONARY
5
D
100
AcDbDictionary
0
DICTIONARY
5
1A
330
C
100
AcDbDictionary
0
DICTIONARY
5
17
100
AcDbDictionary
0
ENDSEC
0
EOF
